<svg height="480pt" viewBox="0 0 480 480" width="480pt" xmlns="http://www.w3.org/2000/svg" xmlns:xlink="http://www.w3.org/1999/xlink"><linearGradient id="a"><stop offset="0" stop-color="#fff200"/><stop offset="1" stop-color="#cd118c"/></linearGradient><linearGradient id="b" gradientUnits="userSpaceOnUse" x1="-13.304" x2="442.696" xlink:href="#a" y1="531.968" y2="27.968"/><linearGradient id="c" gradientUnits="userSpaceOnUse" x1="-179.768" x2="276.232" xlink:href="#a" y1="381.352" y2="-122.648"/><linearGradient id="d" gradientUnits="userSpaceOnUse" x1="-85.464" x2="370.536" xlink:href="#a" y1="466.672" y2="-37.328"/><linearGradient id="e" gradientUnits="userSpaceOnUse" x1="42.944" x2="498.944" xlink:href="#a" y1="582.856" y2="78.856"/><linearGradient id="f" gradientUnits="userSpaceOnUse" x1="137.24" x2="593.24" xlink:href="#a" y1="668.168" y2="164.168"/><linearGradient id="g" gradientUnits="userSpaceOnUse" x1="-82.952" x2="373.048" xlink:href="#a" y1="468.944" y2="-35.056"/><linearGradient id="h" gradientUnits="userSpaceOnUse" x1="9.976" x2="465.976" xlink:href="#a" y1="553.032" y2="49.032"/><linearGradient id="i" gradientUnits="userSpaceOnUse" x1="-88.056" x2="367.944" xlink:href="#a" y1="464.328" y2="-39.672"/><linearGradient id="j" gradientUnits="userSpaceOnUse" x1="52.712" x2="508.712" xlink:href="#a" y1="591.696" y2="87.696"/><linearGradient id="k" gradientUnits="userSpaceOnUse" x1="-122.544" x2="333.456" xlink:href="#a" y1="433.128" y2="-70.872"/><linearGradient id="l" gradientUnits="userSpaceOnUse" x1="-43.36" x2="412.64" xlink:href="#a" y1="504.768" y2=".768"/><path d="m456 104h-88v16h88c4.304688.261719 7.738281 3.695312 8 8v224h-448v-224c.261719-4.304688 3.695312-7.738281 8-8h88v-16h-88c-13.113281.332031-23.667969 10.886719-24 24v248c.332031 13.113281 10.886719 23.667969 24 24h184v18.273438c-41.785156 6.015624-72.6875 23.605468-78.777344 45.726562h-17.222656v16h256v-16h-17.222656c-6.089844-22.121094-36.992188-39.710938-78.777344-45.726562v-18.273438h184c13.113281-.332031 23.667969-10.886719 24-24v-248c-.332031-13.113281-10.886719-23.667969-24-24zm-122.34375 360h-187.3125c7.199219-12.449219 30.257812-24.441406 61.65625-29.488281v13.488281h16v-15.367188c5.183594-.402343 10.511719-.632812 16-.632812s10.816406.230469 16 .632812v15.367188h16v-13.488281c31.398438 5.046875 54.488281 17.039062 61.65625 29.488281zm-77.65625-47.390625c-5.230469-.363281-10.542969-.609375-16-.609375s-10.769531.246094-16 .609375v-16.609375h32zm200-32.609375h-432c-4.304688-.261719-7.738281-3.695312-8-8v-8h448v8c-.261719 4.304688-3.695312 7.738281-8 8zm0 0" fill="url(#b)"/><path d="m56 128h-24c-4.417969 0-8 3.582031-8 8v24h16v-16h16zm0 0" fill="url(#c)"/><path d="m24 312v24c0 4.417969 3.582031 8 8 8h24v-16h-16v-16zm0 0" fill="url(#d)"/><path d="m456 160v-24c0-4.417969-3.582031-8-8-8h-24v16h16v16zm0 0" fill="url(#e)"/><path d="m424 344h24c4.417969 0 8-3.582031 8-8v-24h-16v16h-16zm0 0" fill="url(#f)"/><path d="m240 224c61.855469 0 112-50.144531 112-112s-50.144531-112-112-112-112 50.144531-112 112c.066406 61.828125 50.171875 111.933594 112 112zm0-208c53.019531 0 96 42.980469 96 96s-42.980469 96-96 96-96-42.980469-96-96c.058594-52.996094 43.003906-95.941406 96-96zm0 0" fill="url(#g)"/><path d="m232 264v44.6875l-10.34375-10.34375-11.3125 11.3125 24 24c3.125 3.121094 8.1875 3.121094 11.3125 0l24-24-11.3125-11.3125-10.34375 10.34375v-44.6875zm0 0" fill="url(#h)"/><path d="m104 200v60.6875l-18.34375-18.34375-11.3125 11.3125 32 32c3.125 3.121094 8.1875 3.121094 11.3125 0l32-32-11.3125-11.3125-18.34375 18.34375v-60.6875zm0 0" fill="url(#i)"/><path d="m360 200v60.6875l-18.34375-18.34375-11.3125 11.3125 32 32c3.125 3.121094 8.1875 3.121094 11.3125 0l32-32-11.3125-11.3125-18.34375 18.34375v-60.6875zm0 0" fill="url(#j)"/><path d="m216 176h16v8h16v-8h16c13.253906 0 24-10.746094 24-24v-24c0-13.253906-10.746094-24-24-24h-16v-40h16c4.417969 0 8 3.582031 8 8v8h16v-8c0-13.253906-10.746094-24-24-24h-16v-8h-16v8h-16c-13.253906 0-24 10.746094-24 24v24c0 13.253906 10.746094 24 24 24h16v40h-16c-4.417969 0-8-3.582031-8-8v-8h-16v8c0 13.253906 10.746094 24 24 24zm0-72c-4.417969 0-8-3.582031-8-8v-24c0-4.417969 3.582031-8 8-8h16v40zm32 16h16c4.417969 0 8 3.582031 8 8v24c0 4.417969-3.582031 8-8 8h-16zm0 0" fill="url(#g)"/><path d="m160 104h16v16h-16zm0 0" fill="url(#k)"/><path d="m304 104h16v16h-16zm0 0" fill="url(#l)"/></svg>