<?xml version="1.0" encoding="iso-8859-1"?>
<!-- Generator: Adobe Illustrator 19.0.0, SVG Export Plug-In . SVG Version: 6.00 Build 0)  -->
<svg version="1.1" id="Capa_1" xmlns="http://www.w3.org/2000/svg" xmlns:xlink="http://www.w3.org/1999/xlink" x="0px" y="0px"
	 viewBox="0 0 511.926 511.926" style="enable-background:new 0 0 511.926 511.926;" xml:space="preserve">
<polygon style="fill:#656D78;" points="295.956,75.989 215.969,75.989 231.967,59.991 279.958,59.991 "/>
<g style="opacity:0.2;">
	<polygon style="fill:#FFFFFF;" points="231.967,59.991 215.969,75.989 223.967,75.989 239.965,59.991 	"/>
</g>
<g style="opacity:0.2;">
	<polygon points="279.958,59.991 295.956,75.989 287.958,75.989 271.96,59.991 	"/>
</g>
<g>
	<rect x="151.973" y="187.973" style="fill:#CCD1D9;" width="31.995" height="319.95"/>
	<rect x="327.952" y="187.973" style="fill:#CCD1D9;" width="31.994" height="319.95"/>
</g>
<path style="fill:#A0D468;" d="M455.934,467.151c0,13.248-10.74,23.997-23.996,23.997s-23.996-10.749-23.996-23.997
	s10.74-71.989,23.996-71.989S455.934,453.902,455.934,467.151z"/>
<g style="opacity:0.5;">
	<path style="fill:#FFFFFF;" d="M415.939,467.151c0-11.889,8.646-60.24,19.996-70.099c-1.303-1.141-2.631-1.891-3.998-1.891
		c-13.256,0-23.996,58.741-23.996,71.989s10.74,23.997,23.996,23.997c1.367,0,2.695-0.188,3.998-0.406
		C424.594,488.835,415.939,479.031,415.939,467.151z"/>
</g>
<g style="opacity:0.2;">
	<path d="M447.935,467.151c0-11.889-8.648-60.24-19.998-70.099c1.305-1.141,2.633-1.891,4-1.891
		c13.256,0,23.996,58.741,23.996,71.989s-10.74,23.997-23.996,23.997c-1.367,0-2.695-0.188-4-0.406
		C439.279,488.835,447.935,479.031,447.935,467.151z"/>
</g>
<path style="fill:#A0D468;" d="M103.985,467.151c0,13.248-10.74,23.997-23.996,23.997s-23.997-10.749-23.997-23.997
	s10.741-71.989,23.997-71.989S103.985,453.902,103.985,467.151z"/>
<g style="opacity:0.5;">
	<path style="fill:#FFFFFF;" d="M63.991,467.151c0-11.889,8.647-60.24,19.997-70.099c-1.304-1.141-2.632-1.891-3.999-1.891
		c-13.256,0-23.997,58.741-23.997,71.989s10.741,23.997,23.997,23.997c1.367,0,2.695-0.188,3.999-0.406
		C72.646,488.835,63.991,479.031,63.991,467.151z"/>
</g>
<g style="opacity:0.2;">
	<path d="M95.986,467.151c0-11.889-8.647-60.24-19.997-70.099c1.304-1.141,2.632-1.891,4-1.891
		c13.256,0,23.996,58.741,23.996,71.989s-10.74,23.997-23.996,23.997c-1.367,0-2.695-0.188-4-0.406
		C87.332,488.835,95.986,479.031,95.986,467.151z"/>
</g>
<g>
	<rect x="183.973" y="139.983" style="fill:#5D9CEC;" width="23.998" height="367.95"/>
	<rect x="303.952" y="139.983" style="fill:#5D9CEC;" width="23.998" height="367.95"/>
</g>
<rect x="207.973" y="75.993" style="fill:#E6E9ED;" width="95.98" height="431.94"/>
<g style="opacity:0.4;">
	<rect x="183.973" y="139.983" style="fill:#FFFFFF;" width="8" height="367.95"/>
</g>
<g style="opacity:0.2;">
	<rect x="199.973" y="139.983" width="8" height="367.95"/>
</g>
<g style="opacity:0.2;">
	<rect x="303.952" y="139.983" width="8" height="367.95"/>
</g>
<g style="opacity:0.2;">
	<rect x="327.952" y="187.973" width="7.998" height="319.95"/>
</g>
<g style="opacity:0.2;">
	<rect x="175.973" y="187.973" width="7.998" height="319.95"/>
</g>
<g style="opacity:0.7;">
	<rect x="151.973" y="187.973" style="fill:#FFFFFF;" width="7.999" height="319.95"/>
</g>
<g style="opacity:0.2;">
	<rect x="351.952" y="187.973" width="7.998" height="319.95"/>
</g>
<g style="opacity:0.2;">
	<rect x="319.952" y="139.983" width="8" height="367.95"/>
</g>
<rect x="207.973" y="75.993" style="fill:#FFFFFF;" width="7.998" height="431.94"/>
<g style="opacity:0.2;">
	<rect x="295.952" y="75.993" width="7.998" height="431.94"/>
</g>
<g>
	<path style="fill:#3A3847;" d="M431.938,511.926c-2.211,0-4-1.789-4-4v-48.773c0-2.211,1.789-4,4-4s3.998,1.789,3.998,4v48.773
		C435.935,510.137,434.148,511.926,431.938,511.926z"/>
	<path style="fill:#3A3847;" d="M447.951,489.038c-1.094,0-2.188-0.445-2.977-1.328c-1.477-1.647-1.336-4.171,0.305-5.647
		c4.232-3.796,6.654-9.225,6.654-14.912c0-18.325-12.396-67.99-19.996-67.99c-7.602,0-19.998,49.665-19.998,67.99
		c0,5.68,2.43,11.108,6.672,14.912c1.641,1.477,1.781,4,0.305,5.647c-1.477,1.656-4,1.781-5.648,0.305
		c-5.928-5.312-9.326-12.92-9.326-20.864c0-8.459,9.342-75.988,27.996-75.988c19.02,0,27.996,67.178,27.996,75.988
		c0,7.952-3.398,15.561-9.313,20.864C449.855,488.702,448.904,489.038,447.951,489.038z"/>
	<path style="fill:#3A3847;" d="M79.989,511.926c-2.211,0-4-1.789-4-4v-48.773c0-2.211,1.789-4,4-4c2.21,0,3.999,1.789,3.999,4
		v48.773C83.988,510.137,82.199,511.926,79.989,511.926z"/>
	<path style="fill:#3A3847;" d="M96.002,489.038c-1.094,0-2.187-0.445-2.976-1.328c-1.477-1.647-1.336-4.171,0.305-5.647
		c4.233-3.796,6.655-9.225,6.655-14.912c0-18.325-12.396-67.99-19.997-67.99s-19.997,49.665-19.997,67.99
		c0,5.68,2.429,11.108,6.671,14.912c1.64,1.477,1.781,4,0.305,5.647c-1.477,1.656-3.992,1.781-5.648,0.305
		c-5.929-5.312-9.327-12.92-9.327-20.864c0-8.459,9.342-75.988,27.996-75.988c19.021,0,27.996,67.178,27.996,75.988
		c0,7.952-3.398,15.561-9.311,20.864C97.908,488.702,96.954,489.038,96.002,489.038z"/>
	<path style="fill:#3A3847;" d="M303.954,511.926c-2.209,0-3.998-1.789-3.998-4V79.988h-87.988v427.938c0,2.211-1.789,4-3.998,4
		c-2.211,0-4-1.789-4-4V75.989c0-2.211,1.789-4,4-4h95.984c2.211,0,4,1.789,4,4v431.937
		C307.954,510.137,306.165,511.926,303.954,511.926z"/>
	<path style="fill:#3A3847;" d="M223.967,479.93c-2.21,0-3.998-1.788-3.998-3.999V139.98c0-2.21,1.788-3.999,3.998-3.999
		c2.211,0,4,1.789,4,3.999v335.951C227.967,478.142,226.178,479.93,223.967,479.93z"/>
	<path style="fill:#3A3847;" d="M239.965,479.93c-2.211,0-3.999-1.788-3.999-3.999V139.98c0-2.21,1.788-3.999,3.999-3.999
		s4,1.789,4,3.999v335.951C243.965,478.142,242.176,479.93,239.965,479.93z"/>
	<path style="fill:#3A3847;" d="M255.963,479.93c-2.211,0-4-1.788-4-3.999V139.98c0-2.21,1.789-3.999,4-3.999
		c2.211,0,4,1.789,4,3.999v335.951C259.962,478.142,258.173,479.93,255.963,479.93z"/>
	<path style="fill:#3A3847;" d="M223.967,127.982c-2.21,0-3.998-1.789-3.998-3.999V91.987c0-2.21,1.788-4,3.998-4
		c2.211,0,4,1.789,4,4v31.996C227.967,126.193,226.178,127.982,223.967,127.982z"/>
	<path style="fill:#3A3847;" d="M239.965,127.982c-2.211,0-3.999-1.789-3.999-3.999V91.987c0-2.21,1.788-4,3.999-4s4,1.789,4,4
		v31.996C243.965,126.193,242.176,127.982,239.965,127.982z"/>
	<path style="fill:#3A3847;" d="M255.963,127.982c-2.211,0-4-1.789-4-3.999V91.987c0-2.21,1.789-4,4-4c2.211,0,4,1.789,4,4v31.996
		C259.962,126.193,258.173,127.982,255.963,127.982z"/>
	<path style="fill:#3A3847;" d="M271.96,479.93c-2.211,0-4-1.788-4-3.999V139.98c0-2.21,1.789-3.999,4-3.999
		s3.998,1.789,3.998,3.999v335.951C275.958,478.142,274.172,479.93,271.96,479.93z"/>
	<path style="fill:#3A3847;" d="M271.96,127.982c-2.211,0-4-1.789-4-3.999V91.987c0-2.21,1.789-4,4-4s3.998,1.789,3.998,4v31.996
		C275.958,126.193,274.172,127.982,271.96,127.982z"/>
	<path style="fill:#3A3847;" d="M287.958,479.93c-2.211,0-4-1.788-4-3.999V139.98c0-2.21,1.789-3.999,4-3.999
		c2.209,0,3.998,1.789,3.998,3.999v335.951C291.956,478.142,290.167,479.93,287.958,479.93z"/>
	<path style="fill:#3A3847;" d="M287.958,127.982c-2.211,0-4-1.789-4-3.999V91.987c0-2.21,1.789-4,4-4c2.209,0,3.998,1.789,3.998,4
		v31.996C291.956,126.193,290.167,127.982,287.958,127.982z"/>
	<path style="fill:#3A3847;" d="M327.952,143.98h-15.998c-2.211,0-4-1.789-4-4c0-2.21,1.789-3.999,4-3.999h15.998
		c2.209,0,3.998,1.789,3.998,3.999C331.951,142.191,330.161,143.98,327.952,143.98z"/>
	<path style="fill:#3A3847;" d="M327.952,511.926c-2.211,0-4-1.789-4-4V139.98c0-2.21,1.789-3.999,4-3.999
		c2.209,0,3.998,1.789,3.998,3.999v367.946C331.951,510.137,330.161,511.926,327.952,511.926z"/>
	<path style="fill:#3A3847;" d="M359.947,191.972h-23.996c-2.211,0-4-1.789-4-4c0-2.21,1.789-3.999,4-3.999h23.996
		c2.211,0,4,1.789,4,3.999C363.947,190.184,362.158,191.972,359.947,191.972z"/>
	<path style="fill:#3A3847;" d="M359.947,511.926c-2.211,0-4-1.789-4-4V187.973c0-2.21,1.789-3.999,4-3.999s4,1.789,4,3.999v319.953
		C363.947,510.137,362.158,511.926,359.947,511.926z"/>
	<path style="fill:#3A3847;" d="M327.952,167.976h-8c-2.211,0-4-1.789-4-3.999c0-2.211,1.789-4,4-4h8c2.209,0,3.998,1.789,3.998,4
		C331.951,166.187,330.161,167.976,327.952,167.976z"/>
	<path style="fill:#3A3847;" d="M327.952,191.972h-8c-2.211,0-4-1.789-4-4c0-2.21,1.789-3.999,4-3.999h8
		c2.209,0,3.998,1.789,3.998,3.999C331.951,190.184,330.161,191.972,327.952,191.972z"/>
	<path style="fill:#3A3847;" d="M327.952,215.969h-8c-2.211,0-4-1.789-4-4s1.789-4,4-4h8c2.209,0,3.998,1.789,3.998,4
		S330.161,215.969,327.952,215.969z"/>
	<path style="fill:#3A3847;" d="M327.952,239.966h-8c-2.211,0-4-1.789-4-4s1.789-4,4-4h8c2.209,0,3.998,1.789,3.998,4
		S330.161,239.966,327.952,239.966z"/>
	<path style="fill:#3A3847;" d="M327.952,263.962h-8c-2.211,0-4-1.789-4-3.999c0-2.211,1.789-4,4-4h8c2.209,0,3.998,1.789,3.998,4
		C331.951,262.173,330.161,263.962,327.952,263.962z"/>
	<path style="fill:#3A3847;" d="M327.952,287.958h-8c-2.211,0-4-1.788-4-3.999s1.789-4,4-4h8c2.209,0,3.998,1.789,3.998,4
		S330.161,287.958,327.952,287.958z"/>
	<path style="fill:#3A3847;" d="M327.952,311.955h-8c-2.211,0-4-1.789-4-4s1.789-3.999,4-3.999h8c2.209,0,3.998,1.788,3.998,3.999
		S330.161,311.955,327.952,311.955z"/>
	<path style="fill:#3A3847;" d="M327.952,335.951h-8c-2.211,0-4-1.789-4-4c0-2.21,1.789-3.999,4-3.999h8
		c2.209,0,3.998,1.789,3.998,3.999C331.951,334.162,330.161,335.951,327.952,335.951z"/>
	<path style="fill:#3A3847;" d="M327.952,359.947h-8c-2.211,0-4-1.788-4-3.999s1.789-3.999,4-3.999h8
		c2.209,0,3.998,1.788,3.998,3.999S330.161,359.947,327.952,359.947z"/>
	<path style="fill:#3A3847;" d="M327.952,383.944h-8c-2.211,0-4-1.789-4-3.999c0-2.211,1.789-4,4-4h8c2.209,0,3.998,1.789,3.998,4
		C331.951,382.155,330.161,383.944,327.952,383.944z"/>
	<path style="fill:#3A3847;" d="M327.952,407.941h-8c-2.211,0-4-1.788-4-3.999s1.789-4,4-4h8c2.209,0,3.998,1.789,3.998,4
		S330.161,407.941,327.952,407.941z"/>
	<path style="fill:#3A3847;" d="M327.952,431.938h-8c-2.211,0-4-1.789-4-4s1.789-3.999,4-3.999h8c2.209,0,3.998,1.788,3.998,3.999
		S330.161,431.938,327.952,431.938z"/>
	<path style="fill:#3A3847;" d="M327.952,455.934h-8c-2.211,0-4-1.789-4-3.999c0-2.211,1.789-4,4-4h8c2.209,0,3.998,1.789,3.998,4
		C331.951,454.145,330.161,455.934,327.952,455.934z"/>
	<path style="fill:#3A3847;" d="M327.952,479.93h-8c-2.211,0-4-1.788-4-3.999c0-2.21,1.789-3.999,4-3.999h8
		c2.209,0,3.998,1.789,3.998,3.999C331.951,478.142,330.161,479.93,327.952,479.93z"/>
	<path style="fill:#3A3847;" d="M199.971,143.98h-15.998c-2.21,0-3.998-1.789-3.998-4c0-2.21,1.788-3.999,3.998-3.999h15.998
		c2.211,0,4,1.789,4,3.999C203.971,142.191,202.182,143.98,199.971,143.98z"/>
	<path style="fill:#3A3847;" d="M183.973,511.926c-2.21,0-3.998-1.789-3.998-4V139.98c0-2.21,1.788-3.999,3.998-3.999
		c2.211,0,4,1.789,4,3.999v367.946C187.973,510.137,186.184,511.926,183.973,511.926z"/>
	<path style="fill:#3A3847;" d="M191.973,167.976h-8c-2.21,0-3.998-1.789-3.998-3.999c0-2.211,1.788-4,3.998-4h8
		c2.211,0,3.999,1.789,3.999,4C195.972,166.187,194.184,167.976,191.973,167.976z"/>
	<path style="fill:#3A3847;" d="M191.973,191.972h-8c-2.21,0-3.998-1.789-3.998-4c0-2.21,1.788-3.999,3.998-3.999h8
		c2.211,0,3.999,1.789,3.999,3.999C195.972,190.184,194.184,191.972,191.973,191.972z"/>
	<path style="fill:#3A3847;" d="M191.973,215.969h-8c-2.21,0-3.998-1.789-3.998-4s1.788-4,3.998-4h8c2.211,0,3.999,1.789,3.999,4
		S194.184,215.969,191.973,215.969z"/>
	<path style="fill:#3A3847;" d="M191.973,239.966h-8c-2.21,0-3.998-1.789-3.998-4s1.788-4,3.998-4h8c2.211,0,3.999,1.789,3.999,4
		S194.184,239.966,191.973,239.966z"/>
	<path style="fill:#3A3847;" d="M191.973,263.962h-8c-2.21,0-3.998-1.789-3.998-3.999c0-2.211,1.788-4,3.998-4h8
		c2.211,0,3.999,1.789,3.999,4C195.972,262.173,194.184,263.962,191.973,263.962z"/>
	<path style="fill:#3A3847;" d="M191.973,287.958h-8c-2.21,0-3.998-1.788-3.998-3.999s1.788-4,3.998-4h8
		c2.211,0,3.999,1.789,3.999,4S194.184,287.958,191.973,287.958z"/>
	<path style="fill:#3A3847;" d="M191.973,311.955h-8c-2.21,0-3.998-1.789-3.998-4s1.788-3.999,3.998-3.999h8
		c2.211,0,3.999,1.788,3.999,3.999S194.184,311.955,191.973,311.955z"/>
	<path style="fill:#3A3847;" d="M191.973,335.951h-8c-2.21,0-3.998-1.789-3.998-4c0-2.21,1.788-3.999,3.998-3.999h8
		c2.211,0,3.999,1.789,3.999,3.999C195.972,334.162,194.184,335.951,191.973,335.951z"/>
	<path style="fill:#3A3847;" d="M191.973,359.947h-8c-2.21,0-3.998-1.788-3.998-3.999s1.788-3.999,3.998-3.999h8
		c2.211,0,3.999,1.788,3.999,3.999S194.184,359.947,191.973,359.947z"/>
	<path style="fill:#3A3847;" d="M191.973,383.944h-8c-2.21,0-3.998-1.789-3.998-3.999c0-2.211,1.788-4,3.998-4h8
		c2.211,0,3.999,1.789,3.999,4C195.972,382.155,194.184,383.944,191.973,383.944z"/>
	<path style="fill:#3A3847;" d="M191.973,407.941h-8c-2.21,0-3.998-1.788-3.998-3.999s1.788-4,3.998-4h8
		c2.211,0,3.999,1.789,3.999,4S194.184,407.941,191.973,407.941z"/>
	<path style="fill:#3A3847;" d="M191.973,431.938h-8c-2.21,0-3.998-1.789-3.998-4s1.788-3.999,3.998-3.999h8
		c2.211,0,3.999,1.788,3.999,3.999S194.184,431.938,191.973,431.938z"/>
	<path style="fill:#3A3847;" d="M191.973,455.934h-8c-2.21,0-3.998-1.789-3.998-3.999c0-2.211,1.788-4,3.998-4h8
		c2.211,0,3.999,1.789,3.999,4C195.972,454.145,194.184,455.934,191.973,455.934z"/>
	<path style="fill:#3A3847;" d="M191.973,479.93h-8c-2.21,0-3.998-1.788-3.998-3.999c0-2.21,1.788-3.999,3.998-3.999h8
		c2.211,0,3.999,1.789,3.999,3.999C195.972,478.142,194.184,479.93,191.973,479.93z"/>
	<path style="fill:#3A3847;" d="M343.948,479.93c-2.209,0-3.998-1.788-3.998-3.999v-271.96c0-2.211,1.789-4,3.998-4
		c2.211,0,4,1.789,4,4v271.96C347.948,478.142,346.159,479.93,343.948,479.93z"/>
	<path style="fill:#3A3847;" d="M175.975,191.972h-23.997c-2.211,0-3.999-1.789-3.999-4c0-2.21,1.788-3.999,3.999-3.999h23.997
		c2.211,0,4,1.789,4,3.999C179.975,190.184,178.186,191.972,175.975,191.972z"/>
	<path style="fill:#3A3847;" d="M151.978,511.926c-2.211,0-3.999-1.789-3.999-4V187.973c0-2.21,1.788-3.999,3.999-3.999
		s4,1.789,4,3.999v319.953C155.978,510.137,154.189,511.926,151.978,511.926z"/>
	<path style="fill:#3A3847;" d="M167.976,479.93c-2.211,0-4-1.788-4-3.999v-271.96c0-2.211,1.789-4,4-4c2.209,0,3.999,1.789,3.999,4
		v271.96C171.975,478.142,170.186,479.93,167.976,479.93z"/>
	<path style="fill:#3A3847;" d="M255.963,63.991c-2.211,0-4-1.789-4-4V4c0-2.211,1.789-4,4-4c2.211,0,4,1.789,4,4v55.991
		C259.962,62.202,258.173,63.991,255.963,63.991z"/>
	<path style="fill:#3A3847;" d="M223.967,71.99c-1.022,0-2.046-0.391-2.826-1.171c-1.563-1.563-1.563-4.094,0-5.656l7.998-7.999
		c1.563-1.563,4.094-1.563,5.656,0c1.562,1.562,1.562,4.093,0,5.655l-8,7.999C226.014,71.599,224.99,71.99,223.967,71.99z"/>
	<path style="fill:#3A3847;" d="M279.958,63.991h-47.992c-2.211,0-4-1.789-4-4c0-2.21,1.789-3.999,4-3.999h47.992
		c2.211,0,4,1.789,4,3.999C283.958,62.202,282.169,63.991,279.958,63.991z"/>
	<path style="fill:#3A3847;" d="M287.958,71.99c-1.023,0-2.047-0.391-2.828-1.171l-8-7.999c-1.563-1.563-1.563-4.093,0-5.655
		c1.563-1.563,4.094-1.563,5.656,0l7.998,7.999c1.563,1.562,1.563,4.093,0,5.656C290.003,71.599,288.98,71.99,287.958,71.99z"/>
	<path style="fill:#3A3847;" d="M255.963,511.926c-2.211,0-4-1.789-4-4v-15.997c0-2.211,1.789-4,4-4c2.211,0,4,1.789,4,4v15.997
		C259.962,510.137,258.173,511.926,255.963,511.926z"/>
	<path style="fill:#3A3847;" d="M399.941,511.926H111.984c-2.211,0-4-1.789-4-4c0-2.21,1.789-3.999,4-3.999h287.958
		c2.211,0,4,1.789,4,3.999C403.941,510.137,402.151,511.926,399.941,511.926z"/>
</g>
<g>
</g>
<g>
</g>
<g>
</g>
<g>
</g>
<g>
</g>
<g>
</g>
<g>
</g>
<g>
</g>
<g>
</g>
<g>
</g>
<g>
</g>
<g>
</g>
<g>
</g>
<g>
</g>
<g>
</g>
</svg>
